# xmcd
#
# Track frame offsets:
#   150
#   15739
#   28064
#   43406
#   50092
#   57498
#   83181
#   99992
#   118891
#   137334
#   154878
#   173869
#   196234
#   207156
#   213160
#   219379
#   226907
#   236838
#   242508
#   246172
#   258100
#   266995
#   270416
#   274251
#   294621
#   296588
#   304495
#   320958
#   331238
#   337281
#
# Disc length: 4618 seconds
#
# Revision: 0
# Processed by: cddbd v1.5.1PL0 Copyright (c) Steve Scherf et al.
# Submitted via: uFREEDB ActiveX Control 1.5
#
DISCID=da12081e
DTITLE=Duquinha - Duquinha
DYEAR=1900
DGENRE=Forro
TTITLE0=Duquinha01
TTITLE1=Duquinha02
TTITLE2=Duquinha03
TTITLE3=Duquinha04
TTITLE4=Duquinha05
TTITLE5=Duquinha06
TTITLE6=Duquinha07
TTITLE7=Duquinha08
TTITLE8=Duquinha09
TTITLE9=Duquinha10
TTITLE10=Duquinha11
TTITLE11=Duquinha12
TTITLE12=Duquinha13
TTITLE13=Duquinha14
TTITLE14=Duquinha15
TTITLE15=Duquinha16
TTITLE16=Duquinha17
TTITLE17=Duquinha18
TTITLE18=Duquinha19
TTITLE19=Duquinha20
TTITLE20=Duquinha21
TTITLE21=Duquinha22
TTITLE22=Duquinha23
TTITLE23=Duquinha24
TTITLE24=Duquinha25
TTITLE25=Duquinha26
TTITLE26=Duquinha27
TTITLE27=Duquinha28
TTITLE28=Duquinha29
TTITLE29=Duquinha30
EXTD=
EXTT0=
EXTT1=
EXTT2=
EXTT3=
EXTT4=
EXTT5=
EXTT6=
EXTT7=
EXTT8=
EXTT9=
EXTT10=
EXTT11=
EXTT12=
EXTT13=
EXTT14=
EXTT15=
EXTT16=
EXTT17=
EXTT18=
EXTT19=
EXTT20=
EXTT21=
EXTT22=
EXTT23=
EXTT24=
EXTT25=
EXTT26=
EXTT27=
EXTT28=
EXTT29=
PLAYORDER=
